<svg xmlns="http://www.w3.org/2000/svg" viewBox="0 0 16 16" id="Ad-Circle-Off-Fill--Streamline-Mingcute-Fill" height="16" width="16">
  <desc>
    Ad Circle Off Fill Streamline Icon: https://streamlinehq.com
  </desc>
  <g fill="none">
    <path d="m16 0 0 16 -16 0L0 0l16 0ZM8.395666666666667 15.505199999999999l-0.0077333333333333325 0.0011333333333333332 -0.047333333333333324 0.023666666666666662 -0.012666666666666666 0.0024666666666666665 -0.010133333333333333 -0.0024666666666666665 -0.047333333333333324 -0.023666666666666662c-0.0066 -0.0020666666666666663 -0.012466666666666668 -0.0003333333333333333 -0.015733333333333332 0.0036l-0.0027333333333333333 0.007266666666666666 -0.0114 0.28486666666666666 0.003333333333333333 0.013600000000000001 0.007333333333333332 0.008133333333333333 0.06906666666666667 0.049333333333333326 0.009866666666666666 0.0026 0.007866666666666666 -0.0026 0.06906666666666667 -0.049333333333333326 0.0084 -0.010666666666666666 0.0022666666666666664 -0.011066666666666666 -0.0114 -0.28486666666666666c-0.0013333333333333333 -0.0067333333333333325 -0.005733333333333333 -0.011 -0.010733333333333333 -0.011999999999999999Zm0.1766 -0.075 -0.009266666666666666 0.0013333333333333333 -0.12313333333333333 0.061599999999999995 -0.0066 0.0068000000000000005 -0.0018 0.007466666666666667 0.011933333333333332 0.28633333333333333 0.0031999999999999997 0.008533333333333334 0.005666666666666667 0.004733333333333333 0.13393333333333332 0.0618c0.008066666666666666 0.0024666666666666665 0.015266666666666666 -0.00013333333333333334 0.019 -0.005333333333333333l0.0026666666666666666 -0.009333333333333332 -0.02273333333333333 -0.4098c-0.0015999999999999999 -0.007933333333333334 -0.006866666666666667 -0.013 -0.012866666666666667 -0.014133333333333333Zm-0.4769333333333333 0.0013333333333333333c-0.006533333333333333 -0.0032666666666666664 -0.013866666666666666 -0.0013333333333333333 -0.018266666666666667 0.003533333333333333l-0.0038 0.009266666666666666 -0.02273333333333333 0.4098c-0.00046666666666666666 0.007666666666666666 0.004666666666666666 0.0138 0.011199999999999998 0.0156l0.010466666666666666 -0.0009333333333333333 0.13393333333333332 -0.0618 0.006266666666666667 -0.005399999999999999 0.0026 -0.007866666666666666 0.011933333333333332 -0.28633333333333333 -0.0021333333333333334 -0.0084 -0.006266666666666667 -0.005866666666666667 -0.12319999999999999 -0.061599999999999995Z" stroke-width="0.6667"></path>
    <path fill="#000000" d="m2.0865266666666664 4.918839999999999 2.2639266666666664 2.26396 -0.66388 2.655533333333333c-0.0893 0.3572 0.12787333333333334 0.7191333333333333 0.48506666666666665 0.8083999999999999 0.3316857133333333 0.0829524 0.6674699666666666 -0.09840206666666665 0.7852454466666666 -0.41072733333333333L4.980093333333333 10.161666666666665 5.187186666666666 9.333333333333332l1.3138333333333332 0 0.41571333333333327 0.41573333333333334 0.10319999999999999 0.41259999999999997c0.0820238 0.32821906666666667 0.394267 0.5382530666666666 0.7215132666666666 0.5008761333333334L7.817133333333333 10.649466666666665l3.264 3.264C10.1596 14.394599999999999 9.1116 14.666666666666666 8 14.666666666666666 4.318099999999999 14.666666666666666 1.3333333333333333 11.681866666666666 1.3333333333333333 8c0 -1.0260923333333332 0.23180308 -1.99800426 0.6458999733333333 -2.8662790333333334L2.0865266666666664 4.918839999999999ZM8 1.3333333333333333c3.6818666666666666 0 6.666666666666666 2.9847666666666663 6.666666666666666 6.666666666666666 0 1.5208233333333334 -0.5092506666666666 2.922697133333333 -1.3665083333333332 4.044377866666666L13.161933333333332 12.219133333333334l0.6427999999999999 0.6427999999999999c0.2603333333333333 0.2603333333333333 0.2603333333333333 0.6824666666666667 0 0.9427999999999999 -0.24030766666666664 0.24030766666666664 -0.6184804666666666 0.2587928666666667 -0.8799982 0.0554556L12.861933333333333 13.804733333333333 2.1952599999999998 3.1380733333333333c-0.2603466666666666 -0.2603533333333333 -0.2603466666666666 -0.68246 0 -0.9428133333333333 0.24032615333333332 -0.24032 0.6184776333333333 -0.25880615333333334 0.88000768 -0.055458459999999994L3.1380733333333333 2.1952599999999998l0.6427733333333333 0.6427733333333333C4.930093333333333 1.8975799999999998 6.399153333333333 1.3333333333333333 8 1.3333333333333333Zm2.6666666666666665 4 -1.3333333333333333 0c-0.36819999999999997 0 -0.6666666666666666 0.29847999999999997 -0.6666666666666666 0.6666666666666666l0 1.7238666666666664 1.3333333333333333 1.3333333333333333L10 6.666666666666666l0.6666666666666666 0c0.36819999999999997 0 0.6666666666666666 0.29846666666666666 0.6666666666666666 0.6666666666666666l0 1.3333333333333333c0 0.36819999999999997 -0.29846666666666666 0.6666666666666666 -0.6666666666666666 0.6666666666666666l-0.3905333333333333 0 1.1740666666666666 1.174C12.165333333333333 10.202533333333333 12.666666666666666 9.493133333333333 12.666666666666666 8.666666666666666l0 -1.3333333333333333c0 -1.1045666666666665 -0.8954 -2 -2 -2Zm-4.38352 0.007006666666666666 1.20772 1.2077133333333332 -0.051199999999999996 -0.20476666666666665c-0.1372 -0.5487799999999999 -0.6033999999999999 -0.9461200000000001 -1.15652 -1.0029466666666667Z" stroke-width="0.6667"></path>
  </g>
</svg>